<?xml version="1.0" standalone="no"?>
<!DOCTYPE svg PUBLIC "-//W3C//DTD SVG 20010904//EN"
 "http://www.w3.org/TR/2001/REC-SVG-20010904/DTD/svg10.dtd">
<svg version="1.0" xmlns="http://www.w3.org/2000/svg"
 width="200.000000pt" height="169.000000pt" viewBox="0 0 200.000000 169.000000"
 preserveAspectRatio="xMidYMid meet">

<g transform="translate(0.000000,169.000000) scale(0.100000,-0.100000)"
fill="#ffffff" stroke="#ffffff" stroke-width="5">
<path d="M183 1555 c-65 -28 -64 -19 -61 -600 l3 -525 28 -27 27 -28 330 -3
330 -3 0 -99 0 -99 -47 -3 c-35 -2 -48 -7 -48 -18 0 -13 35 -15 245 -17 135
-2 251 1 259 6 24 15 1 31 -45 31 l-44 0 0 100 0 100 310 0 c250 0 317 3 346
15 64 27 64 26 63 582 0 358 -3 508 -12 533 -8 24 -23 41 -47 52 -32 17 -92
18 -820 18 -646 -1 -791 -3 -817 -15z m1634 -48 c17 -16 18 -48 18 -435 l0
-417 -838 -3 -838 -2 3 421 3 421 24 19 c23 19 46 19 817 17 746 -3 794 -4
811 -21z m21 -978 c-6 -132 84 -119 -840 -119 l-789 0 -24 25 c-22 21 -25 33
-25 100 l0 75 841 0 841 0 -4 -81z m-718 -259 l0 -100 -120 0 -120 0 0 100 0
100 120 0 120 0 0 -100z"/>
<path d="M1573 1455 c-4 -12 20 -43 83 -106 49 -49 94 -89 101 -89 33 0 17 28
-59 106 -95 98 -115 113 -125 89z"/>
<path d="M1484 1399 c-9 -15 195 -219 218 -219 34 0 17 25 -84 127 -101 101
-120 114 -134 92z"/>
<path d="M822 1280 c-35 -15 -42 -50 -42 -211 0 -145 6 -183 34 -201 6 -4 90
-8 187 -8 158 0 178 2 192 18 15 16"/>
<!-- Add more paths here -->

</g>
</svg>
